<svg xmlns="http://www.w3.org/2000/svg" width="30.801" height="30.801" viewBox="0 0 30.801 30.801">
  <path id="contact-linkedin" d="M15.4,2.567A12.834,12.834,0,1,1,2.567,15.4,12.848,12.848,0,0,1,15.4,2.567ZM15.4,0A15.4,15.4,0,1,0,30.8,15.4,15.4,15.4,0,0,0,15.4,0ZM12.834,10.267A1.283,1.283,0,1,1,11.55,8.973,1.288,1.288,0,0,1,12.834,10.267Zm0,2.567H10.267v7.7h2.567Zm3.85,0H14.117v7.7h2.567V16.862c0-2.21,2.569-2.414,2.569,0v3.672h2.564V16.223c0-4.215-4.014-4.061-5.134-1.987v-1.4Z" opacity="0.49"/>
</svg>
