<svg xmlns="http://www.w3.org/2000/svg" width="30.801" height="30.801" viewBox="0 0 30.801 30.801">
  <path id="contact-github" d="M15.4,2.567A12.834,12.834,0,1,1,2.567,15.4,12.848,12.848,0,0,1,15.4,2.567ZM15.4,0A15.4,15.4,0,1,0,30.8,15.4,15.4,15.4,0,0,0,15.4,0Zm0,7.7a7.7,7.7,0,0,0-2.433,15.007c.385.072.508-.167.508-.371V20.9c-2.142.466-2.589-.907-2.589-.907a2.037,2.037,0,0,0-.855-1.127c-.7-.479.053-.468.053-.468a1.617,1.617,0,0,1,1.181.794,1.64,1.64,0,0,0,2.241.64A1.637,1.637,0,0,1,14,18.805c-1.711-.2-3.507-.856-3.507-3.805a2.977,2.977,0,0,1,.793-2.066,2.776,2.776,0,0,1,.074-2.041s.647-.207,2.118.789a7.3,7.3,0,0,1,3.857,0c1.471-1,2.115-.789,2.115-.789a2.774,2.774,0,0,1,.077,2.038A2.97,2.97,0,0,1,20.313,15c0,2.958-1.8,3.609-3.516,3.8a1.836,1.836,0,0,1,.529,1.426v2.112c0,.205.123.445.513.37A7.7,7.7,0,0,0,15.4,7.7Z" opacity="0.49"/>
</svg>
