<svg xmlns="http://www.w3.org/2000/svg" width="196.357" height="30.801" viewBox="0 0 196.357 30.801">
  <g id="Group_137" data-name="Group 137" transform="translate(-1352 -2381)">
    <path id="contact-github" d="M15.4,2.567A12.834,12.834,0,1,1,2.567,15.4,12.848,12.848,0,0,1,15.4,2.567ZM15.4,0A15.4,15.4,0,1,0,30.8,15.4,15.4,15.4,0,0,0,15.4,0Zm0,7.7a7.7,7.7,0,0,0-2.433,15.007c.385.072.508-.167.508-.371V20.9c-2.142.466-2.589-.907-2.589-.907a2.037,2.037,0,0,0-.855-1.127c-.7-.479.053-.468.053-.468a1.617,1.617,0,0,1,1.181.794,1.64,1.64,0,0,0,2.241.64A1.637,1.637,0,0,1,14,18.805c-1.711-.2-3.507-.856-3.507-3.805a2.977,2.977,0,0,1,.793-2.066,2.776,2.776,0,0,1,.074-2.041s.647-.207,2.118.789a7.3,7.3,0,0,1,3.857,0c1.471-1,2.115-.789,2.115-.789a2.774,2.774,0,0,1,.077,2.038A2.97,2.97,0,0,1,20.313,15c0,2.958-1.8,3.609-3.516,3.8a1.836,1.836,0,0,1,.529,1.426v2.112c0,.205.123.445.513.37A7.7,7.7,0,0,0,15.4,7.7Z" transform="translate(1352 2381)" opacity="0.49"/>
    <path id="contact-email" d="M15.4,2.587A12.834,12.834,0,1,1,2.567,15.421,12.848,12.848,0,0,1,15.4,2.587ZM15.4.02a15.4,15.4,0,1,0,15.4,15.4A15.4,15.4,0,0,0,15.4.02Zm0,16.106-7.69-5.865H23.089L15.4,16.126Zm0,1.653L7.7,11.839v8.69H23.1v-8.69Z" transform="translate(1462.37 2380.98)" opacity="0.49"/>
    <path id="contact-linkedin" d="M15.4,2.567A12.834,12.834,0,1,1,2.567,15.4,12.848,12.848,0,0,1,15.4,2.567ZM15.4,0A15.4,15.4,0,1,0,30.8,15.4,15.4,15.4,0,0,0,15.4,0ZM12.834,10.267A1.283,1.283,0,1,1,11.55,8.973,1.288,1.288,0,0,1,12.834,10.267Zm0,2.567H10.267v7.7h2.567Zm3.85,0H14.117v7.7h2.567V16.862c0-2.21,2.569-2.414,2.569,0v3.672h2.564V16.223c0-4.215-4.014-4.061-5.134-1.987v-1.4Z" transform="translate(1407.185 2381)" opacity="0.49"/>
    <path id="contact-phone-icon" d="M15.4,2.567A12.834,12.834,0,1,1,2.567,15.4,12.848,12.848,0,0,1,15.4,2.567ZM15.4,0A15.4,15.4,0,1,0,30.8,15.4,15.4,15.4,0,0,0,15.4,0Zm5.775,22.217-2.259-4.36-1.324.648c-1.437.7-4.363-5.018-2.958-5.771l1.337-.658L13.73,7.7l-1.351.667C7.757,10.777,15.1,25.04,19.822,22.88l1.354-.664Z" transform="translate(1517.556 2381)" opacity="0.49"/>
  </g>
</svg>
