<svg xmlns="http://www.w3.org/2000/svg" xmlns:xlink="http://www.w3.org/1999/xlink" width="22.716" height="22.148" viewBox="0 0 22.716 22.148">
  <defs>
    <radialGradient id="radial-gradient" cx="-7.386" cy="4.652" r="0" gradientTransform="translate(0.014) scale(0.973 1)" gradientUnits="objectBoundingBox">
      <stop offset="0" stop-color="#442f55" stop-opacity="0.98"/>
      <stop offset="1" stop-color="#12002c"/>
    </radialGradient>
  </defs>
  <g id="ae" transform="translate(-727.7 -105.411)">
    <path id="Path_280" data-name="Path 280" d="M733.337,111.048H754.16V131.3H733.337Z" transform="translate(-4.691 -4.691)" fill="url(#radial-gradient)"/>
    <path id="Path_281" data-name="Path 281" d="M728.646,106.357h20.823v20.255H728.646Zm-.946,21.2h22.716V105.411H727.7Zm16.071-11.472a4.175,4.175,0,0,0,.7-.019c0-.066.019-.114.019-.161a1.317,1.317,0,0,0-1.23-1.458c-.909,0-1.3.795-1.391,1.637Zm-1.921,1.3a1.9,1.9,0,0,0,2.063,2.139,3.707,3.707,0,0,0,1.543-.293c.066-.028.114-.019.114.066v1.183a.2.2,0,0,1-.095.189,4.293,4.293,0,0,1-1.9.36c-2.5,0-3.436-1.846-3.436-3.9,0-2.234,1.155-4.06,3.19-4.06,2.063,0,2.783,1.732,2.783,3.142a4.784,4.784,0,0,1-.076,1,.141.141,0,0,1-.123.123,13.714,13.714,0,0,1-1.581.066h-2.48Zm-5.073-.965c-.265-1.051-.909-3.341-1.145-4.448h-.019c-.2,1.107-.719,2.981-1.107,4.448Zm-2.66,1.533-.748,2.83c-.019.076-.047.1-.142.1h-1.391c-.095,0-.114-.028-.095-.142l2.688-9.4a2.9,2.9,0,0,0,.095-.776c0-.066.028-.095.076-.095h1.988c.066,0,.094.019.114.095l3.01,10.194c.019.076,0,.123-.076.123h-1.562a.128.128,0,0,1-.142-.095l-.776-2.84Z" fill="#d8a1ff"/>
  </g>
</svg>
