<svg id="ai" xmlns="http://www.w3.org/2000/svg" xmlns:xlink="http://www.w3.org/1999/xlink" width="20.555" height="20.028" viewBox="0 0 20.555 20.028">
  <defs>
    <radialGradient id="radial-gradient" cx="-10.258" cy="-3.902" r="0" gradientTransform="translate(0.014) scale(0.972 1)" gradientUnits="objectBoundingBox">
      <stop offset="0" stop-color="#423325" stop-opacity="0.98"/>
      <stop offset="1" stop-color="#1c0a00"/>
    </radialGradient>
  </defs>
  <path id="Path_278" data-name="Path 278" d="M2.4,2.4H21.233V20.706H2.4Z" transform="translate(-1.557 -1.557)" fill="url(#radial-gradient)"/>
  <path id="Path_279" data-name="Path 279" d="M.843.843H19.677V19.15H.843ZM0,20.028H20.555V0H0Zm13.457-12.9a.093.093,0,0,1,.105-.105H14.9A.093.093,0,0,1,15,7.133v6.746c0,.07,0,.105-.105.105H13.563a.093.093,0,0,1-.105-.105V7.133ZM13.352,5.2a.878.878,0,1,1,1.757,0,.812.812,0,0,1-.878.878A.829.829,0,0,1,13.352,5.2ZM9.522,9.944C9.276,9,8.714,6.922,8.5,5.9h0c-.176,1.019-.632,2.706-.984,4.041ZM7.133,11.349l-.668,2.565c0,.07-.035.07-.141.07H5.06c-.07,0-.105-.035-.07-.141l2.424-8.5a2.429,2.429,0,0,0,.07-.7c0-.07.035-.07.07-.07H9.346c.07,0,.07,0,.105.07l2.706,9.241c0,.07,0,.105-.07.105H10.682c-.07,0-.105,0-.141-.07l-.7-2.565H7.133Z" fill="#ff7f18"/>
</svg>
