<svg xmlns="http://www.w3.org/2000/svg" width="24.956" height="28.076" viewBox="0 0 24.956 28.076">
  <g id="Group_166" data-name="Group 166" transform="translate(-302.958 -383.889)">
    <g id="形状_1" data-name="形状 1" transform="translate(302.958 383.889)" style="isolation: isolate">
      <g id="形状_1-2" data-name="形状 1" transform="translate(0 0)">
        <g id="Group_157" data-name="Group 157">
          <path id="Path_296" data-name="Path 296" d="M302.958,383.889l2.34,25.346,10.138,2.73,10.138-2.73,2.34-25.346Z" transform="translate(-302.958 -383.889)" fill="#1758a7" fill-rule="evenodd"/>
        </g>
      </g>
    </g>
    <g id="形状_1-3" data-name="形状 1" transform="translate(315.436 385.942)" style="isolation: isolate">
      <g id="形状_1-4" data-name="形状 1" transform="translate(0 0)">
        <g id="Group_158" data-name="Group 158">
          <path id="Path_297" data-name="Path 297" d="M358.978,393.106v23.846l.023.006,8.2-2.209,1.894-21.642Z" transform="translate(-358.978 -393.106)" fill="#379ad6" fill-rule="evenodd"/>
        </g>
      </g>
    </g>
    <g id="形状_1-5" data-name="形状 1" transform="translate(308.662 399.956)" style="isolation: isolate">
      <g id="形状_1-6" data-name="形状 1" transform="translate(0 0)">
        <g id="Group_159" data-name="Group 159">
          <path id="Path_298" data-name="Path 298" d="M335.311,459.369l-.005,0-3.387-.863-.205-2.486h-3.148l.411,4.8,6.364,1.9v-3.36Z" transform="translate(-328.565 -456.021)" fill="#e8e8e7" fill-rule="evenodd"/>
        </g>
      </g>
    </g>
    <g id="形状_1-7" data-name="形状 1" transform="translate(315.436 395.267)" style="isolation: isolate">
      <g id="形状_1-8" data-name="形状 1" transform="translate(0 0)">
        <g id="Group_160" data-name="Group 160">
          <path id="Path_299" data-name="Path 299" d="M358.979,434.97v3.05h.009l3.762,0-.241,3.986-3.521.992-.009,0v3.35l.009,0h0l6.381-1.864.828-9.525Z" transform="translate(-358.979 -434.97)" fill="#fbfbfa" fill-rule="evenodd"/>
        </g>
      </g>
    </g>
    <g id="形状_1-9" data-name="形状 1" transform="translate(308.216 395.267)" style="isolation: isolate">
      <g id="形状_1-10" data-name="形状 1" transform="translate(0 0)">
        <g id="Group_161" data-name="Group 161">
          <path id="Path_300" data-name="Path 300" d="M326.566,434.97l.24,3.047v0h6.98V434.97Z" transform="translate(-326.566 -434.97)" fill="#e5e4e2" fill-rule="evenodd"/>
        </g>
      </g>
    </g>
    <g id="形状_1-11" data-name="形状 1" transform="translate(308.217 392.215)" style="isolation: isolate">
      <g id="形状_1-12" data-name="形状 1" transform="translate(0)">
        <g id="Group_162" data-name="Group 162">
          <path id="Path_301" data-name="Path 301" d="M326.568,424.319h7.2l.018-.008v-3.045Z" transform="translate(-326.568 -421.266)" fill="#eee" fill-rule="evenodd"/>
        </g>
      </g>
    </g>
    <g id="形状_1-13" data-name="形状 1" transform="translate(315.436 392.067)" style="isolation: isolate">
      <g id="形状_1-14" data-name="形状 1" transform="translate(0 0)">
        <g id="Group_163" data-name="Group 163">
          <path id="Path_302" data-name="Path 302" d="M359.4,420.6l-.422.177V423.8l7.444-3.2Z" transform="translate(-358.979 -420.601)" fill="#fff" fill-rule="evenodd"/>
        </g>
      </g>
    </g>
    <g id="形状_1-15" data-name="形状 1" transform="translate(307.547 389.015)" style="isolation: isolate">
      <g id="形状_1-16" data-name="形状 1" transform="translate(0 0)">
        <g id="Group_164" data-name="Group 164">
          <path id="Path_303" data-name="Path 303" d="M323.562,406.9l.377,3.051h7.512V406.9Z" transform="translate(-323.562 -406.901)" fill="#e7e7e6" fill-rule="evenodd"/>
        </g>
      </g>
    </g>
    <g id="形状_1-17" data-name="形状 1" transform="translate(315.436 389.015)" style="isolation: isolate">
      <g id="形状_1-18" data-name="形状 1" transform="translate(0)">
        <g id="Group_165" data-name="Group 165">
          <path id="Path_304" data-name="Path 304" d="M358.979,409.953l7.74-3.052h-7.74Zm0,0h7.429l.308-3.052Z" transform="translate(-358.979 -406.901)" fill="#f8f8f7" fill-rule="evenodd"/>
        </g>
      </g>
    </g>
  </g>
</svg>
