<svg xmlns="http://www.w3.org/2000/svg" width="22.724" height="25.903" viewBox="0 0 22.724 25.903">
  <g id="html" transform="translate(-467.792 -399.986)">
    <path id="Path_308" data-name="Path 308" d="M467.795,400.828l1.683,21.529a.833.833,0,0,0,.561.7l8.871,2.805a1.156,1.156,0,0,0,.491,0l8.871-2.805a.833.833,0,0,0,.561-.7l1.683-21.529a.878.878,0,0,0-.842-.841H468.566A.774.774,0,0,0,467.795,400.828Zm18.338,6.7H475.158l.316,3.051h10.414l-.666,8.7-6.1,1.964-6.1-1.929-.351-4.558h3.191v2.244l3.331.912,3.331-.912.245-3.541h-10.2l-.666-8.7h14.481Z" transform="translate(0 0)" fill="#2a445d"/>
  </g>
</svg>
