<svg xmlns="http://www.w3.org/2000/svg" width="17.327" height="23.493" viewBox="0 0 17.327 23.493">
  <g id="java" transform="translate(-560.653 -339.136)">
    <path id="Path_310" data-name="Path 310" d="M591.156,459.039s-.9.522.639.7a13.441,13.441,0,0,0,4.865-.206,8.465,8.465,0,0,0,1.293.631c-4.6,1.971-10.409-.114-6.8-1.123" transform="translate(-24.922 -101.734)" fill="#5382a1"/>
    <path id="Path_311" data-name="Path 311" d="M586.691,442.064s-1.007.745.531.9a18.98,18.98,0,0,0,6.277-.3,2.784,2.784,0,0,0,.967.589c-5.561,1.626-11.754.128-7.775-1.193" transform="translate(-21.02 -87.331)" fill="#5382a1"/>
    <path id="Path_312" data-name="Path 312" d="M619.217,377.237a1.721,1.721,0,0,1-.3,2.479s2.877-1.485,1.556-3.345c-1.234-1.735-2.181-2.6,2.943-5.568,0,0-8.043,2.009-4.2,6.435" transform="translate(-48.808 -26.868)" fill="#e76f00"/>
    <path id="Path_313" data-name="Path 313" d="M576.492,470.481s.664.547-.732.971c-2.655.8-11.049,1.047-13.381.032-.838-.365.734-.871,1.228-.977a3.19,3.19,0,0,1,.81-.091c-.932-.657-6.026,1.289-2.587,1.847,9.377,1.521,17.093-.685,14.661-1.782" transform="translate(0 -111.274)" fill="#5382a1"/>
    <path id="Path_314" data-name="Path 314" d="M577.229,424.455s-4.27,1.014-1.512,1.382a32.065,32.065,0,0,0,5.648-.06c1.767-.149,3.541-.466,3.541-.466a7.5,7.5,0,0,0-1.074.575c-4.336,1.14-12.712.61-10.3-.557a8.079,8.079,0,0,1,3.7-.874" transform="translate(-10.564 -72.387)" fill="#5382a1"/>
    <path id="Path_315" data-name="Path 315" d="M650.382,427.487c4.408-2.29,2.37-4.491.947-4.195a3.292,3.292,0,0,0-.5.135.8.8,0,0,1,.377-.29c2.814-.989,4.978,2.918-.908,4.465a.383.383,0,0,0,.089-.115" transform="translate(-76.057 -71.138)" fill="#5382a1"/>
    <path id="Path_316" data-name="Path 316" d="M602.931,339.136s2.441,2.442-2.315,6.2c-3.814,3.012-.87,4.73,0,6.692-2.226-2.009-3.86-3.777-2.764-5.423,1.609-2.416,6.066-3.587,5.081-7.466" transform="translate(-31.264)" fill="#e76f00"/>
    <path id="Path_317" data-name="Path 317" d="M584.589,481.64c4.231.271,10.728-.15,10.882-2.152,0,0-.3.759-3.5,1.361a34.781,34.781,0,0,1-10.707.165s.541.448,3.322.626" transform="translate(-17.491 -119.085)" fill="#5382a1"/>
  </g>
</svg>
