<svg xmlns="http://www.w3.org/2000/svg" width="28" height="28" viewBox="0 0 28 28">
  <g id="javascript" transform="translate(3)">
    <path id="Path_318" data-name="Path 318" d="M0,0H28V28H0Z" transform="translate(-3)" fill="#f7df1e"/>
    <path id="Path_319" data-name="Path 319" d="M67.311,126.848l2.143-1.3c.413.733.789,1.353,1.691,1.353.865,0,1.41-.338,1.41-1.654V116.3h2.631v8.984c0,2.725-1.6,3.966-3.928,3.966a4.084,4.084,0,0,1-3.947-2.406m9.3-.282,2.142-1.24a2.864,2.864,0,0,0,2.594,1.6c1.09,0,1.786-.545,1.786-1.3,0-.9-.714-1.222-1.917-1.748l-.658-.282c-1.9-.808-3.158-1.823-3.158-3.966,0-1.974,1.5-3.477,3.853-3.477A3.886,3.886,0,0,1,85,118.258l-2.049,1.316a1.792,1.792,0,0,0-1.691-1.128A1.145,1.145,0,0,0,80,119.574c0,.789.489,1.109,1.616,1.6l.658.282c2.237.959,3.5,1.936,3.5,4.135,0,2.368-1.861,3.665-4.36,3.665a5.055,5.055,0,0,1-4.793-2.688" transform="translate(-62.949 -103.449)"/>
  </g>
</svg>
