<svg xmlns="http://www.w3.org/2000/svg" width="26.653" height="13.839" viewBox="0 0 26.653 13.839">
  <g id="mysql" transform="translate(-72.549 -65.514)">
    <g id="Group_154" data-name="Group 154" transform="translate(71.26 58.677)">
      <path id="Path_286" data-name="Path 286" d="M79.764,163.639h.88v-3.485l1.374,3.038a.9.9,0,0,0,1.617,0L85,160.154v3.485h.886v-3.485a.532.532,0,0,0-.419-.589c-.67-.2-1.116-.027-1.319.426L82.8,163l-1.3-3c-.2-.453-.65-.629-1.326-.426a.533.533,0,0,0-.413.589v3.485Z" transform="translate(-78.474 -144.194)" fill="#004e61" fill-rule="evenodd"/>
      <path id="Path_287" data-name="Path 287" d="M124.961,168.122h.886v1.915c-.007.108.034.352.514.359.25.007,1.908,0,1.922,0v-2.287h.886v3.133c0,.771-.954.941-1.4.947h-2.788V171.6h2.795c.568-.061.5-.345.5-.44v-.23H126.4c-.873-.007-1.435-.392-1.441-.832,0-.04.02-1.962,0-1.976Z" transform="translate(-116.817 -151.513)" fill="#004e61" fill-rule="evenodd"/>
      <path id="Path_288" data-name="Path 288" d="M199.074,111.311a3.129,3.129,0,0,0-1.313.189c-.1.041-.264.041-.277.169.054.054.061.142.108.217a1.584,1.584,0,0,0,.352.413c.142.108.284.216.433.311.264.162.562.257.819.419.149.095.3.217.447.318.074.054.122.142.217.176v-.02c-.047-.061-.061-.149-.108-.217-.068-.068-.135-.129-.2-.2a3.213,3.213,0,0,0-.7-.683c-.217-.149-.69-.352-.778-.6l-.014-.013a2.757,2.757,0,0,0,.467-.108c.23-.061.44-.047.677-.108.108-.027.217-.061.325-.095v-.061c-.122-.122-.21-.284-.338-.4a9.02,9.02,0,0,0-1.116-.832c-.21-.135-.48-.223-.7-.338-.081-.041-.217-.061-.264-.129a2.723,2.723,0,0,1-.277-.521c-.2-.372-.386-.785-.555-1.177a7.191,7.191,0,0,0-.345-.771,6.819,6.819,0,0,0-2.619-2.531,3.25,3.25,0,0,0-.866-.277c-.169-.007-.338-.02-.508-.027a2.686,2.686,0,0,1-.311-.237c-.386-.244-1.38-.771-1.665-.074-.183.44.271.873.426,1.1a3.194,3.194,0,0,1,.345.507c.047.115.061.237.108.359a8.131,8.131,0,0,0,.352.907,3.269,3.269,0,0,0,.25.419c.054.074.149.108.169.23a1.933,1.933,0,0,0-.156.507,2.981,2.981,0,0,0,.2,2.274c.108.169.365.541.711.4.3-.122.237-.507.325-.846.02-.081.007-.135.047-.189v.013c.095.189.189.372.277.562a3.867,3.867,0,0,0,.88.907c.162.122.291.332.494.406v-.02h-.014a.748.748,0,0,0-.156-.135,3.3,3.3,0,0,1-.352-.406,8.693,8.693,0,0,1-.758-1.232c-.108-.21-.2-.44-.291-.65-.041-.081-.041-.2-.108-.244a2.545,2.545,0,0,0-.325.46,3.809,3.809,0,0,0-.189,1.022c-.027.007-.014,0-.027.013-.216-.054-.291-.277-.372-.467a2.927,2.927,0,0,1-.061-1.807c.047-.142.25-.589.169-.724-.041-.129-.176-.2-.25-.3a2.736,2.736,0,0,1-.244-.433c-.162-.379-.244-.8-.419-1.177a3.613,3.613,0,0,0-.338-.521,3.344,3.344,0,0,1-.372-.528c-.034-.074-.081-.2-.027-.277a.108.108,0,0,1,.095-.088c.088-.074.338.02.426.061a3.456,3.456,0,0,1,.67.338c.095.068.2.2.318.23h.142c.217.047.46.013.663.074a4.331,4.331,0,0,1,.974.467,6,6,0,0,1,2.111,2.314c.081.156.115.3.19.46.142.332.318.67.46.995a4.457,4.457,0,0,0,.48.907c.1.142.507.216.69.291a4.856,4.856,0,0,1,.467.189c.23.142.46.3.677.46.108.081.446.25.467.386Z" transform="translate(-171.916 -96.921)" fill="#004e61" fill-rule="evenodd"/>
      <path id="Path_289" data-name="Path 289" d="M203.274,114.791a1.07,1.07,0,0,0-.277.034v.013h.013a2.173,2.173,0,0,0,.217.277c.054.108.1.217.156.325l.013-.013a.382.382,0,0,0,.142-.338,1.506,1.506,0,0,1-.081-.142c-.041-.068-.129-.1-.183-.156Z" transform="translate(-183.018 -106.281)" fill="#004e61" fill-rule="evenodd"/>
      <path id="Path_290" data-name="Path 290" d="M157.175,164.106h2.544a1.934,1.934,0,0,0,.812-.169c.386-.176.568-.413.568-.724v-.65c0-.25-.21-.487-.629-.65a2.211,2.211,0,0,0-.751-.129H158.65c-.359,0-.528-.108-.575-.345a.326.326,0,0,1-.007-.081v-.4a.3.3,0,0,1,.007-.074c.047-.183.142-.23.453-.264h2.6v-.589h-2.477a2.289,2.289,0,0,0-.717.074c-.521.162-.751.419-.751.873v.514c0,.4.447.738,1.2.819.081.007.169.007.257.007h.913a.422.422,0,0,1,.095.007c.277.027.4.074.48.176a.206.206,0,0,1,.068.162v.514a.3.3,0,0,1-.122.21.628.628,0,0,1-.379.122c-.034,0-.054.007-.088.007h-2.443v.589Z" transform="translate(-144.145 -144.662)" fill="#e87b00" fill-rule="evenodd"/>
      <path id="Path_291" data-name="Path 291" d="M219.372,163.085c0,.6.453.94,1.36,1.008.088.007.169.014.257.014h2.3v-.589h-2.321c-.514,0-.71-.129-.71-.44v-3.045h-.886v3.052Z" transform="translate(-196.91 -144.662)" fill="#e87b00" fill-rule="evenodd"/>
      <path id="Path_292" data-name="Path 292" d="M186.756,163.15v-2.1c0-.535.379-.859,1.117-.961.081-.007.162-.014.237-.014h1.678c.088,0,.162.007.25.014.738.1,1.11.426,1.11.961v2.1a.772.772,0,0,1-.521.819l.866.785h-1.022l-.7-.636-.711.041h-.947a2.071,2.071,0,0,1-.514-.068c-.562-.156-.839-.453-.839-.941Zm.954-.047a.546.546,0,0,0,.02.088c.047.244.278.379.629.379h.8l-.731-.663h1.022l.643.582a.423.423,0,0,0,.223-.284.384.384,0,0,0,.007-.088v-2.01a.327.327,0,0,0-.007-.081c-.047-.23-.277-.359-.623-.359H188.36c-.392,0-.65.169-.65.44v2Z" transform="translate(-169.24 -144.7)" fill="#e87b00" fill-rule="evenodd"/>
      <path id="Path_293" data-name="Path 293" d="M246.9,183.607h.129v-.494h.169v-.1h-.474v.1h.176v.494Zm.981,0H248v-.6h-.183l-.149.406-.162-.406h-.176v.6h.115v-.453h.007l.169.453h.088l.169-.453h0v.453Z" transform="translate(-220.112 -164.155)" fill="#e87b00" fill-rule="evenodd"/>
    </g>
  </g>
</svg>
