<svg xmlns="http://www.w3.org/2000/svg" xmlns:xlink="http://www.w3.org/1999/xlink" width="28.604" height="27.889" viewBox="0 0 28.604 27.889">
  <defs>
    <radialGradient id="radial-gradient" cx="-2.102" cy="-1.564" r="0" gradientTransform="translate(0.014) scale(0.973 1)" gradientUnits="objectBoundingBox">
      <stop offset="0" stop-color="#34364e" stop-opacity="0.98"/>
      <stop offset="1" stop-color="#0c0824"/>
    </radialGradient>
  </defs>
  <g id="ps" transform="translate(-37.147 -830)">
    <path id="Path_294" data-name="Path 294" d="M42.013,834.866h26.22v25.505H42.013Z" transform="translate(-3.674 -3.674)" fill="url(#radial-gradient)"/>
    <path id="Path_295" data-name="Path 295" d="M38.339,831.192h26.22V856.7H38.339Zm-1.192,26.7h28.6V830h-28.6Zm19.284-16.447c-.942,0-1.263.477-1.263.87,0,.429.215.727,1.478,1.382,1.871.906,2.455,1.776,2.455,3.051,0,1.907-1.454,2.932-3.421,2.932a5.187,5.187,0,0,1-2.443-.512c-.083-.036-.1-.1-.1-.191v-1.752c0-.119.06-.155.143-.1a4.424,4.424,0,0,0,2.4.7c.942,0,1.335-.393,1.335-.93,0-.429-.274-.81-1.478-1.43-1.692-.81-2.4-1.633-2.4-3,0-1.538,1.2-2.813,3.29-2.813a5.48,5.48,0,0,1,2.133.334.264.264,0,0,1,.119.238v1.633c0,.1-.06.155-.179.119a4.026,4.026,0,0,0-2.074-.536Zm-10.25,1.418c.274.024.489.024.965.024,1.394,0,2.706-.489,2.706-2.384,0-1.513-.942-2.276-2.527-2.276-.477,0-.93.024-1.144.036Zm-2.121-6.328c0-.083.167-.143.262-.143.763-.036,1.9-.06,3.075-.06,3.3,0,4.588,1.812,4.588,4.124,0,3.027-2.193,4.326-4.887,4.326-.453,0-.608-.024-.93-.024v4.577c0,.1-.036.143-.143.143H44.2c-.1,0-.143-.036-.143-.143v-12.8Z" fill="#31c5f0"/>
  </g>
</svg>
