<svg xmlns="http://www.w3.org/2000/svg" width="23.16" height="23.167" viewBox="0 0 23.16 23.167">
  <path id="spring" d="M244.064,835.842a10.692,10.692,0,0,1-1.237,2.2,11.622,11.622,0,1,0-16.218,16.649l.428.38A11.6,11.6,0,0,0,246.1,847c.317-2.962-.552-6.708-2.033-11.163Zm-15.8,18.911a.994.994,0,1,1-.772-1.623.983.983,0,0,1,.624.223,1,1,0,0,1,.148,1.4Zm15.756-3.481c-2.865,3.822-8.985,2.534-12.909,2.718,0,0-.7.042-1.4.157,0,0,.262-.112.6-.241,2.754-.959,4.057-1.146,5.731-2.006,3.152-1.6,6.268-5.115,6.916-8.768-1.2,3.514-4.838,6.533-8.153,7.76a55.376,55.376,0,0,1-6.373,1.653l-.166-.088c-2.793-1.36-2.877-7.414,2.2-9.368,2.223-.857,4.349-.386,6.75-.959a10.546,10.546,0,0,0,6.735-5.043c1.351,4.014,2.977,10.3.063,14.185Z" transform="translate(-223.002 -834.635)" fill="#77bc1f"/>
</svg>
