<svg xmlns="http://www.w3.org/2000/svg" width="28" height="27.3" viewBox="0 0 28 27.3">
  <g id="xd" transform="translate(-546.66 -97.008)">
    <path id="Path_282" data-name="Path 282" d="M569.7,124.308H551.618a4.954,4.954,0,0,1-4.958-4.958V101.966a4.954,4.954,0,0,1,4.958-4.958H569.7a4.954,4.954,0,0,1,4.958,4.958V119.35A4.954,4.954,0,0,1,569.7,124.308Z" fill="#ff26be"/>
    <path id="Path_283" data-name="Path 283" d="M572.565,126.448h-17.2a4.242,4.242,0,0,1-4.235-4.235v-16.5a4.242,4.242,0,0,1,4.235-4.235h17.185a4.234,4.234,0,0,1,4.235,4.235V122.2a4.228,4.228,0,0,1-4.223,4.246Z" transform="translate(-3.307 -3.307)" fill="#2e001f"/>
    <path id="Path_284" data-name="Path 284" d="M572.542,128.6l3.267,6.276c.058.093.024.187-.07.187h-2.031a.229.229,0,0,1-.245-.151c-.747-1.54-1.505-3.08-2.287-4.737h-.023c-.7,1.564-1.471,3.209-2.216,4.749a.226.226,0,0,1-.211.129H566.8c-.116,0-.129-.093-.069-.164l3.2-6.091-3.091-6.16a.094.094,0,0,1,.069-.164h2.007a.183.183,0,0,1,.209.129c.735,1.54,1.482,3.127,2.182,4.678h.023c.676-1.54,1.423-3.138,2.147-4.667.058-.093.093-.151.211-.151h1.878c.093,0,.129.07.071.163Zm3.839,1.9a4.564,4.564,0,0,1,4.678-4.842,5.152,5.152,0,0,1,.607.023v-3.091a.116.116,0,0,1,.117-.117h1.844c.093,0,.116.035.116.093v10.711a8.306,8.306,0,0,0,.058,1.143c0,.071-.023.093-.093.129a6.944,6.944,0,0,1-2.987.677c-2.532.01-4.341-1.552-4.34-4.726Zm5.284-2.986a1.752,1.752,0,0,0-.677-.117c-1.47,0-2.5,1.131-2.5,3.01,0,2.147,1.05,3.011,2.369,3.011a2.185,2.185,0,0,0,.805-.129v-5.776Z" transform="translate(-14.811 -18.814)" fill="#ffd9f2"/>
  </g>
</svg>
