<svg xmlns="http://www.w3.org/2000/svg" xmlns:xlink="http://www.w3.org/1999/xlink" width="60.106" height="60.106" viewBox="0 0 60.106 60.106">
  <defs>
    <filter id="github-white-icon" x="0" y="0" width="60.106" height="60.106" filterUnits="userSpaceOnUse">
      <feOffset dy="3" input="SourceAlpha"/>
      <feGaussianBlur stdDeviation="3" result="blur"/>
      <feFlood flood-opacity="0.161"/>
      <feComposite operator="in" in2="blur"/>
      <feComposite in="SourceGraphic"/>
    </filter>
  </defs>
  <g transform="matrix(1, 0, 0, 1, 0, 0)" filter="url(#github-white-icon)">
    <path id="github-white-icon-2" data-name="github-white-icon" d="M33.334,0H8.772A8.772,8.772,0,0,0,0,8.772V33.334a8.772,8.772,0,0,0,8.772,8.772H33.334a8.772,8.772,0,0,0,8.772-8.772V8.772A8.772,8.772,0,0,0,33.334,0ZM25.5,34.369c-.7.137-.937-.3-.937-.674V29.845a3.344,3.344,0,0,0-.965-2.6c3.126-.351,6.411-1.535,6.411-6.925a5.428,5.428,0,0,0-1.444-3.767,5.054,5.054,0,0,0-.142-3.714s-1.177-.377-3.86,1.439a13.278,13.278,0,0,0-7.03,0c-2.681-1.816-3.86-1.439-3.86-1.439a5.051,5.051,0,0,0-.128,3.712,5.425,5.425,0,0,0-1.439,3.767c0,5.376,3.276,6.581,6.395,6.937a2.983,2.983,0,0,0-.891,1.877,2.983,2.983,0,0,1-4.1-1.168,2.953,2.953,0,0,0-2.153-1.447s-1.368-.018-.1.854a3.716,3.716,0,0,1,1.56,2.053s.821,2.505,4.725,1.656v2.6c0,.37-.226.805-.926.675a14.035,14.035,0,1,1,8.881,0Z" transform="translate(9 6)" fill="#fff"/>
  </g>
</svg>
