<svg xmlns="http://www.w3.org/2000/svg" width="926.074" height="926.074" viewBox="0 0 926.074 926.074">
  <g id="left-container-bg" transform="translate(-403.572 504.545) rotate(-60)" opacity="0.08">
    <g id="Group_133" data-name="Group 133" transform="translate(63.853 267.577)">
      <line id="Line_7" data-name="Line 7" y2="783.841" transform="matrix(0.875, 0.485, -0.485, 0.875, 380.013, 0)" fill="none" stroke="#063441" stroke-width="1"/>
      <line id="Line_8" data-name="Line 8" y2="783.841" transform="matrix(0.875, 0.485, -0.485, 0.875, 441.554, 34.113)" fill="none" stroke="#063441" stroke-width="1"/>
      <line id="Line_9" data-name="Line 9" y2="783.841" transform="matrix(0.875, 0.485, -0.485, 0.875, 503.095, 68.225)" fill="none" stroke="#063441" stroke-width="1"/>
      <line id="Line_10" data-name="Line 10" y2="783.841" transform="matrix(0.875, 0.485, -0.485, 0.875, 564.635, 102.338)" fill="none" stroke="#063441" stroke-width="1"/>
      <line id="Line_11" data-name="Line 11" y2="783.841" transform="matrix(0.875, 0.485, -0.485, 0.875, 626.176, 136.45)" fill="none" stroke="#063441" stroke-width="1"/>
      <line id="Line_12" data-name="Line 12" y2="783.841" transform="matrix(0.875, 0.485, -0.485, 0.875, 687.717, 170.563)" fill="none" stroke="#063441" stroke-width="1"/>
      <line id="Line_13" data-name="Line 13" y2="783.841" transform="matrix(0.875, 0.485, -0.485, 0.875, 749.257, 204.675)" fill="none" stroke="#063441" stroke-width="1"/>
      <line id="Line_14" data-name="Line 14" y2="783.841" transform="matrix(0.875, 0.485, -0.485, 0.875, 810.798, 238.788)" fill="none" stroke="#063441" stroke-width="1"/>
    </g>
    <g id="Group_134" data-name="Group 134" transform="translate(7.077 1135.151) rotate(-90)">
      <line id="Line_7-2" data-name="Line 7" y2="783.841" transform="matrix(0.875, 0.485, -0.485, 0.875, 380.013, 0)" fill="none" stroke="#063441" stroke-width="1"/>
      <line id="Line_8-2" data-name="Line 8" y2="783.841" transform="matrix(0.875, 0.485, -0.485, 0.875, 441.554, 34.113)" fill="none" stroke="#063441" stroke-width="1"/>
      <line id="Line_9-2" data-name="Line 9" y2="783.841" transform="matrix(0.875, 0.485, -0.485, 0.875, 503.095, 68.225)" fill="none" stroke="#063441" stroke-width="1"/>
      <line id="Line_10-2" data-name="Line 10" y2="783.841" transform="matrix(0.875, 0.485, -0.485, 0.875, 564.635, 102.338)" fill="none" stroke="#063441" stroke-width="1"/>
      <line id="Line_11-2" data-name="Line 11" y2="783.841" transform="matrix(0.875, 0.485, -0.485, 0.875, 626.176, 136.45)" fill="none" stroke="#063441" stroke-width="1"/>
      <line id="Line_12-2" data-name="Line 12" y2="783.841" transform="matrix(0.875, 0.485, -0.485, 0.875, 687.717, 170.563)" fill="none" stroke="#063441" stroke-width="1"/>
      <line id="Line_13-2" data-name="Line 13" y2="783.841" transform="matrix(0.875, 0.485, -0.485, 0.875, 749.257, 204.675)" fill="none" stroke="#063441" stroke-width="1"/>
      <line id="Line_14-2" data-name="Line 14" y2="783.841" transform="matrix(0.875, 0.485, -0.485, 0.875, 810.798, 238.788)" fill="none" stroke="#063441" stroke-width="1"/>
    </g>
    <g id="Group_136" data-name="Group 136" transform="matrix(0.875, 0.485, -0.485, 0.875, 326.132, -67.378)">
      <circle id="Ellipse_8" data-name="Ellipse 8" cx="10" cy="10" r="10" transform="translate(255 370)" fill="#063441"/>
      <ellipse id="Ellipse_9" data-name="Ellipse 9" cx="9.5" cy="10" rx="9.5" ry="10" transform="translate(468 656)" fill="#063441"/>
      <ellipse id="Ellipse_10" data-name="Ellipse 10" cx="9.5" cy="10" rx="9.5" ry="10" transform="translate(751 656)" fill="#063441"/>
      <ellipse id="Ellipse_11" data-name="Ellipse 11" cx="9.5" cy="10" rx="9.5" ry="10" transform="translate(679 369)" fill="#063441"/>
      <ellipse id="Ellipse_12" data-name="Ellipse 12" cx="9.5" cy="10" rx="9.5" ry="10" transform="translate(258 859)" fill="#063441"/>
      <ellipse id="Ellipse_13" data-name="Ellipse 13" cx="9.5" cy="10" rx="9.5" ry="10" transform="translate(608 794)" fill="#063441"/>
    </g>
  </g>
</svg>
