<svg xmlns="http://www.w3.org/2000/svg" width="42.106" height="42.106" viewBox="0 0 42.106 42.106">
  <path id="linkedin-icon" d="M33.334,0H8.772A8.772,8.772,0,0,0,0,8.772V33.334a8.772,8.772,0,0,0,8.772,8.772H33.334a8.772,8.772,0,0,0,8.772-8.772V8.772A8.772,8.772,0,0,0,33.334,0Zm-19.3,33.334H8.772v-19.3h5.263ZM11.4,11.811a3.095,3.095,0,1,1,3.07-3.095A3.095,3.095,0,0,1,11.4,11.811ZM35.089,33.334H29.825V23.509c0-5.909-7.018-5.462-7.018,0v9.825H17.544v-19.3h5.263v3.1c2.456-4.537,12.281-4.872,12.281,4.344Z" fill="#407381"/>
</svg>
