<svg xmlns="http://www.w3.org/2000/svg" width="593.982" height="416.579" viewBox="0 0 593.982 416.579">
  <g id="main-illust" transform="translate(-1060 -326.521)">
    <g id="main-illust-2" data-name="main-illust" transform="translate(1017.8 147.822)">
      <ellipse id="Ellipse_16" data-name="Ellipse 16" cx="248.189" cy="28.787" rx="248.189" ry="28.787" transform="translate(125.2 537.705)" fill="#aaadb1"/>
      <path id="Path_320" data-name="Path 320" d="M453.456,691.45H233.8a32.127,32.127,0,0,1-32.1-32.1v-77.7a31.723,31.723,0,0,1,11.209-24.2L262.585,515.1H392.634l49.676,42.352a31.876,31.876,0,0,1,11.145,24.2Z" transform="translate(-27.779 -122.156)" fill="#ff901b"/>
      <path id="Path_321" data-name="Path 321" d="M453.456,691.45H233.8a32.127,32.127,0,0,1-32.1-32.1v-77.7a31.723,31.723,0,0,1,11.209-24.2L262.585,515.1H392.634l49.676,42.352a31.876,31.876,0,0,1,11.145,24.2Z" transform="translate(-27.779 -122.156)" fill="#00e7e9"/>
      <path id="Path_322" data-name="Path 322" d="M201.7,716.1v16.24a32.127,32.127,0,0,0,32.1,32.1H453.456V748.2H233.8A32.127,32.127,0,0,1,201.7,716.1Z" transform="translate(-27.779 -195.144)" fill="#00d1c5"/>
      <path id="Path_323" data-name="Path 323" d="M540.037,557.352,490.361,515H471l49.676,42.352a31.937,31.937,0,0,1,11.209,24.2V691.414h19.361v-109.8A31.756,31.756,0,0,0,540.037,557.352Z" transform="translate(-125.569 -122.12)" fill="#00d1c5"/>
      <path id="Path_324" data-name="Path 324" d="M329,536l44.581,31.844L418.162,536Z" transform="translate(-74.005 -129.745)" fill="#fff4e4"/>
      <path id="Path_325" data-name="Path 325" d="M452.366,692.271H232.709A34,34,0,0,1,198.7,658.262v-77.7A33.679,33.679,0,0,1,210.546,554.9l49.676-42.352a1.681,1.681,0,0,1,1.21-.446H391.481a2.011,2.011,0,0,1,1.21.446L442.368,554.9a33.778,33.778,0,0,1,11.846,25.666v109.8A1.788,1.788,0,0,1,452.366,692.271ZM262.2,515.858,213.03,557.764a29.853,29.853,0,0,0-10.508,22.8v77.7a30.17,30.17,0,0,0,30.188,30.188H450.456V580.564a29.951,29.951,0,0,0-10.508-22.8l-49.167-41.906Z" transform="translate(-26.69 -121.067)" fill="#171819"/>
      <rect id="Rectangle_47" data-name="Rectangle 47" width="49.931" height="45.6" transform="translate(253.275 523.694)" fill="#ffdec5"/>
      <rect id="Rectangle_48" data-name="Rectangle 48" width="49.931" height="10.063" transform="translate(253.275 559.232)" fill="#efb58e"/>
      <path id="Path_326" data-name="Path 326" d="M375.141,766.821H325.211a1.876,1.876,0,0,1-1.911-1.911v-45.6a1.876,1.876,0,0,1,1.911-1.911h49.931a1.876,1.876,0,0,1,1.911,1.911v45.6A1.916,1.916,0,0,1,375.141,766.821ZM327.121,763h46.11V721.221h-46.11Z" transform="translate(-71.935 -195.617)" fill="#171819"/>
      <path id="Path_327" data-name="Path 327" d="M311.948,596.64a1.792,1.792,0,0,1-1.528-.828L268.386,537.22a1.918,1.918,0,0,1,3.121-2.229l40,55.726a57.059,57.059,0,0,1,8.025-13.183c7.069-8.6,15.794-13.12,25.475-13.311-33.882-24.965-38.531-27.513-38.849-27.7a1.935,1.935,0,0,1-.955-2.547,1.866,1.866,0,0,1,2.42-.955c.573.255,5.413,2.866,45.027,32.1a1.929,1.929,0,0,1-1.465,3.439c-11.145-1.974-20.762,1.847-28.6,11.336a52.7,52.7,0,0,0-8.725,15.412,1.848,1.848,0,0,1-1.528,1.274A.947.947,0,0,1,311.948,596.64Z" transform="translate(-51.859 -128.609)" fill="#171819"/>
      <path id="Path_328" data-name="Path 328" d="M437.781,595.583a1.969,1.969,0,0,1-1.847-1.337,53.524,53.524,0,0,0-8.725-15.412c-7.834-9.489-17.514-13.311-28.6-11.336a1.936,1.936,0,0,1-2.229-1.529,1.876,1.876,0,0,1,.764-1.847c39.614-29.233,44.454-31.844,45.027-32.1a1.9,1.9,0,0,1,2.484,1.083,1.878,1.878,0,0,1-.955,2.42c-.318.191-4.968,2.739-38.849,27.7,9.68.191,18.406,4.713,25.475,13.311a59.349,59.349,0,0,1,8.025,13.183l40-55.726a1.928,1.928,0,0,1,2.675-.446,1.872,1.872,0,0,1,.446,2.675l-42.034,58.592A2.644,2.644,0,0,1,437.781,595.583Z" transform="translate(-98.464 -128.252)" fill="#171819"/>
      <path id="Path_329" data-name="Path 329" d="M397.911,693.752A1.876,1.876,0,0,1,396,691.842V584.911a1.911,1.911,0,1,1,3.821,0V691.842A1.877,1.877,0,0,1,397.911,693.752Z" transform="translate(-98.335 -146.812)" fill="#171819"/>
      <circle id="Ellipse_17" data-name="Ellipse 17" cx="4.14" cy="4.14" r="4.14" transform="translate(311.04 464.847)" fill="#171819"/>
      <circle id="Ellipse_18" data-name="Ellipse 18" cx="4.14" cy="4.14" r="4.14" transform="translate(311.04 491.596)" fill="#171819"/>
      <path id="Path_330" data-name="Path 330" d="M383.591,753.9H562.425v13.693a11.592,11.592,0,0,1-11.591,11.591H383.591A11.592,11.592,0,0,1,372,767.593v-2.1A11.633,11.633,0,0,1,383.591,753.9Z" transform="translate(-89.62 -208.871)" fill="#b0aefa"/>
      <path id="Path_331" data-name="Path 331" d="M549.745,780.005H382.5A13.509,13.509,0,0,1,369,766.5v-2.1a13.509,13.509,0,0,1,13.5-13.5H561.336a1.877,1.877,0,0,1,1.911,1.911V766.5A13.509,13.509,0,0,1,549.745,780.005ZM382.5,754.721a9.676,9.676,0,0,0-9.68,9.681v2.1a9.676,9.676,0,0,0,9.68,9.68H549.745a9.676,9.676,0,0,0,9.681-9.68V754.721Z" transform="translate(-88.53 -207.781)" fill="#171819"/>
      <path id="Path_332" data-name="Path 332" d="M747.991,698.561H588.264A11.5,11.5,0,0,1,576.8,687.1a10.967,10.967,0,0,1,.255-2.484l30-134c2.484-11.082,11.718-18.915,22.291-18.915H779.135c12.355,0,21.463,12.483,18.6,25.411L770.282,679.646C767.8,690.727,758.564,698.561,747.991,698.561Z" transform="translate(-163.988 -128.184)" fill="#fff4e4"/>
      <path id="Path_333" data-name="Path 333" d="M747.991,698.561H588.264A11.5,11.5,0,0,1,576.8,687.1a10.967,10.967,0,0,1,.255-2.484l30-134c2.484-11.082,11.718-18.915,22.291-18.915H779.135c12.355,0,21.463,12.483,18.6,25.411L770.282,679.646C767.8,690.727,758.564,698.561,747.991,698.561Z" transform="translate(-163.988 -128.184)" fill="#dcdbff"/>
      <path id="Path_334" data-name="Path 334" d="M755.616,693.863H595.825A11.5,11.5,0,0,1,584.361,682.4a10.967,10.967,0,0,1,.255-2.484l30-134A25.687,25.687,0,0,1,620.09,534.9a24.171,24.171,0,0,0-13.056,16.813l-30,134A11.447,11.447,0,0,0,585.7,699.4a10.966,10.966,0,0,0,2.484.255H747.91a22.262,22.262,0,0,0,16.813-7.9A20.338,20.338,0,0,1,755.616,693.863Z" transform="translate(-163.97 -129.346)" fill="#b0aefa"/>
      <path id="Path_335" data-name="Path 335" d="M589.9,684.513l30-134c2.484-11.082,11.718-18.915,22.291-18.915H629.324c-10.572,0-19.807,7.833-22.291,18.915l-30,134a11.447,11.447,0,0,0,8.661,13.693,10.97,10.97,0,0,0,2.484.255h12.928A11.5,11.5,0,0,1,589.647,687,16.423,16.423,0,0,1,589.9,684.513Z" transform="translate(-163.97 -128.148)" fill="#b0aefa"/>
      <path id="Path_336" data-name="Path 336" d="M746.9,699.346H587.174A13.373,13.373,0,0,1,573.8,685.971a15.276,15.276,0,0,1,.318-2.93l30-134c2.675-12.037,12.61-20.444,24.138-20.444H778.045a20.41,20.41,0,0,1,15.922,7.833,23.59,23.59,0,0,1,4.522,19.934L771.039,678.9C768.365,690.939,758.429,699.346,746.9,699.346ZM628.253,532.485c-9.744,0-18.151,7.2-20.444,17.45l-30,134a9.549,9.549,0,0,0,7.26,11.4,11.837,11.837,0,0,0,2.1.255H746.9c9.744,0,18.151-7.2,20.444-17.45L794.795,555.6a19.652,19.652,0,0,0-3.758-16.686,16.7,16.7,0,0,0-12.992-6.432Z" transform="translate(-162.899 -127.058)" fill="#171819"/>
      <path id="Path_337" data-name="Path 337" d="M759.24,643.466a12.42,12.42,0,0,1,.573-2.993,11.161,11.161,0,0,0-3.566-.382c-8.407.318-16.559,8.152-18.215,17.578s3.821,16.813,12.228,16.559c8.025-.255,15.794-7.451,17.96-16.24A13.875,13.875,0,0,1,759.24,643.466Z" transform="translate(-222.429 -167.538)" fill="#fff"/>
      <path id="Path_338" data-name="Path 338" d="M445.363,732.7H454.6a6.714,6.714,0,0,1,6.751,6.751h0A6.754,6.754,0,0,1,454.6,746.2h-20" transform="translate(-112.352 -201.172)" fill="#ffdec5"/>
      <path id="Path_339" data-name="Path 339" d="M453.508,747.023h-20a1.911,1.911,0,1,1,0-3.821h20a4.84,4.84,0,1,0,0-9.68h-12.1a1.911,1.911,0,0,1,0-3.821h12.1a8.661,8.661,0,1,1,0,17.323Z" transform="translate(-111.262 -200.083)" fill="#171819"/>
      <path id="Path_340" data-name="Path 340" d="M390,720.4h32.735a10.682,10.682,0,0,1,10.7,10.7h0a10.682,10.682,0,0,1-10.7,10.7H390.127" transform="translate(-96.156 -196.706)" fill="#ffdec5"/>
      <path id="Path_341" data-name="Path 341" d="M421.646,742.52H389.038a1.911,1.911,0,1,1,0-3.821h32.608a8.789,8.789,0,0,0,0-17.578H388.911a1.911,1.911,0,1,1,0-3.821h32.735a12.61,12.61,0,1,1,0,25.22Z" transform="translate(-95.067 -195.58)" fill="#171819"/>
      <path id="Path_342" data-name="Path 342" d="M409.108,747.023h-20a1.911,1.911,0,1,1,0-3.821h20a4.84,4.84,0,1,0,0-9.68H395.352a1.911,1.911,0,1,1,0-3.821h13.756a8.661,8.661,0,1,1,0,17.323Z" transform="translate(-95.139 -200.083)" fill="#171819"/>
      <path id="Path_343" data-name="Path 343" d="M310.141,761.048a1.877,1.877,0,0,1-1.911-1.911V705.321h-24.52a1.911,1.911,0,1,1,0-3.821h26.43a1.877,1.877,0,0,1,1.911,1.911v55.726A1.877,1.877,0,0,1,310.141,761.048Z" transform="translate(-56.866 -189.843)" fill="#171819"/>
      <path id="Path_344" data-name="Path 344" d="M351.714,451.028h-3.248c-45.282,0-81.966-24.583-81.966-69.865V279.2H433.679V381.163C433.679,426.445,397,451.028,351.714,451.028Z" transform="translate(-51.31 -36.494)" fill="#ffdec5"/>
      <path id="Path_345" data-name="Path 345" d="M267,311.23s14.775,25.475,55.344,26.94C384.376,340.335,408.9,308.3,408.9,308.3Z" transform="translate(-51.491 -47.061)" fill="#685f59"/>
      <path id="Path_346" data-name="Path 346" d="M351.714,493.317h-3.248c-45.282,0-81.966-22.036-81.966-67.317v8.47c0,45.282,36.684,69.865,81.966,69.865h3.248c45.282,0,81.966-24.583,81.966-69.865V426C433.679,471.282,397,493.317,351.714,493.317Z" transform="translate(-51.31 -89.801)" fill="#efb58e"/>
      <path id="Path_347" data-name="Path 347" d="M350.624,451.85h-3.248c-23.246,0-44.263-6.5-59.165-18.406C272.034,420.579,263.5,402.11,263.5,380.01v-101.9a1.877,1.877,0,0,1,1.911-1.911H432.59a1.876,1.876,0,0,1,1.911,1.911V380.074c0,22.036-8.534,40.505-24.711,53.434C394.887,445.353,373.87,451.85,350.624,451.85Zm-83.3-171.828V380.074c0,20.889,8.025,38.276,23.31,50.44,14.2,11.336,34.391,17.514,56.809,17.514h3.248c22.418,0,42.543-6.241,56.809-17.514,15.221-12.1,23.31-29.551,23.31-50.44V280.021Z" transform="translate(-50.22 -35.405)" fill="#171819"/>
      <path id="Path_348" data-name="Path 348" d="M289.291,327.134C281.011,355.793,267,349.425,267,349.425V273h23.564S294.577,308.792,289.291,327.134Z" transform="translate(-51.491 -34.243)" fill="#443b32"/>
      <path id="Path_349" data-name="Path 349" d="M291.074,332.416a154.984,154.984,0,0,0,.955-20.316L267,312.609S273.878,324.455,291.074,332.416Z" transform="translate(-51.491 -48.441)" fill="#5b524a"/>
      <path id="Path_350" data-name="Path 350" d="M269.35,350.819a11.707,11.707,0,0,1-4.2-.764,1.939,1.939,0,0,1-1.146-1.72V271.911A1.877,1.877,0,0,1,265.911,270h23.564a1.925,1.925,0,0,1,1.911,1.72c.191,1.465,4.012,36.365-1.337,54.9l-1.847-.573,1.847.509c-3.566,12.292-8.6,20.061-15.094,22.991A13.333,13.333,0,0,1,269.35,350.819Zm-1.529-3.885a9.7,9.7,0,0,0,5.668-.828c3.694-1.72,8.916-6.687,12.865-20.571,4.458-15.54,2.1-44.39,1.4-51.714H267.821Z" transform="translate(-50.402 -33.154)" fill="#171819"/>
      <path id="Path_351" data-name="Path 351" d="M399.209,201.805c-12.1-10.954-30.124-20.826-55.281-20.125-.318,4.968,3.184,15.731,9.553,21.017-23.946-22.291-75.469-22.482-92.028-5.8a39.67,39.67,0,0,0,19.807,22.673c-30.124-6.942-51.141,8.025-52.86,13.374,5.286,13.183,17.259,26.749,24.583,32.289,24.711,18.533,92.92,25.73,135.208,1.21,2.42-1.4,4.649-2.8,6.687-4.14-.255,10.763.191,23.118,2.675,31.716,8.279,28.659,22.291,22.291,22.291,22.291V248.743A63.317,63.317,0,0,0,399.209,201.805Z" transform="translate(-37.475 -1.069)" fill="#443b32"/>
      <path id="Path_352" data-name="Path 352" d="M372.328,204.725v-.064c-1.529-2.1-5.6-3.885-12.164-8.407-26.175-13.565-65.725-11.655-79.864,2.611.382,1.146.764,2.229,1.274,3.375,18.851-12.164,59.165-12.992,82.284,4.331C366.851,208.8,372.328,208.482,372.328,204.725Z" transform="translate(-56.321 -3.034)" fill="#352e28"/>
      <path id="Path_353" data-name="Path 353" d="M281.515,241.2a2.671,2.671,0,0,0-.255-1.019c-1.21-.255-5.6-.7-14.9-1.783-21.972-.191-36.556,10.763-37.958,15.221.255.7.573,1.4.892,2.1,7.388-5.923,25.348-13.82,47-9.935a4.424,4.424,0,0,0,5.159-3.5A6.176,6.176,0,0,0,281.515,241.2Z" transform="translate(-37.475 -21.677)" fill="#352e28"/>
      <path id="Path_354" data-name="Path 354" d="M465.077,201.805c-12.1-10.954-30.124-20.826-55.281-20.125a20.385,20.385,0,0,0,1.083,7.006c18.023.382,33.691,6.878,42.862,16.3,17.832,18.342,7.26,45.473-.573,55.153-9.489,11.718-15.221,13.693-15.221,13.693s18.915-5.413,22.736-11.591c-3.184,16.686,4.713,52.033,21.654,54.58a9.792,9.792,0,0,0,3.312-.573V248.743A63.024,63.024,0,0,0,465.077,201.805Z" transform="translate(-103.342 -1.069)" fill="#352e25"/>
      <path id="Path_355" data-name="Path 355" d="M415.3,317.666a12.908,12.908,0,0,1-5.6-1.274c-6.432-2.993-11.527-10.7-15.094-22.991-1.974-6.751-2.866-16.368-2.8-28.659-1.21.764-2.484,1.529-3.758,2.293-19.616,11.4-46.3,17-75.215,15.794-25.6-1.083-49.421-7.642-62.1-17.132-7.133-5.35-19.679-19.17-25.22-33.054a1.764,1.764,0,0,1-.064-1.274c1.911-5.859,20-18.788,45.982-16.177A42.263,42.263,0,0,1,258.5,196.469a1.9,1.9,0,0,1,.446-1.911c8.343-8.407,25.475-13.056,44.708-12.292,15.285.637,29.36,4.522,40.25,10.827-2.165-4.713-3.184-9.553-2.993-12.546a1.979,1.979,0,0,1,1.847-1.783c.892,0,1.783-.064,2.611-.064,30,0,49.612,14.9,60.885,27.64a57.8,57.8,0,0,1,14.393,38.212v70.693a1.87,1.87,0,0,1-1.146,1.72A10.433,10.433,0,0,1,415.3,317.666Zm-21.526-58.4a1.877,1.877,0,0,1,1.911,1.911v.064c-.318,13.438.637,24.2,2.611,31.143,4.012,13.82,9.235,18.788,12.865,20.571a9.093,9.093,0,0,0,5.668.828V244.489a53.433,53.433,0,0,0-13.438-35.665c-10.827-12.228-29.742-26.558-58.656-26.3.446,4.649,3.248,12.292,7.834,16.75a8.2,8.2,0,0,1,1.083,1.019,1.9,1.9,0,0,1-2.484,2.866c-.382-.318-.764-.637-1.146-1.019-10.7-9.3-27.959-15.285-46.492-16.049-17.578-.764-33.054,3.184-40.951,10.317a37.75,37.75,0,0,0,18.469,20.38,1.9,1.9,0,0,1-1.274,3.566c-15.858-3.694-28.341-.955-35.983,1.974-8.343,3.184-13.183,7.451-14.393,9.553,5.413,12.992,17.068,25.73,23.692,30.7,12.1,9.044,35.028,15.349,59.93,16.368,28.213,1.146,54.134-4.267,73.113-15.285,2.293-1.337,4.522-2.739,6.623-4.076a1.762,1.762,0,0,1,1.019-.318Z" transform="translate(-36.371 0)" fill="#171819"/>
      <path id="Path_356" data-name="Path 356" d="M450.811,314.416a1.876,1.876,0,0,1-1.911-1.911,1.994,1.994,0,0,1,1.337-1.847,75.467,75.467,0,0,0,23.5-11.782c4.968-3.63,12.1-11.4,12.164-11.527a1.894,1.894,0,1,1,2.8,2.547c-.318.318-7.451,8.152-12.737,12.037a79.655,79.655,0,0,1-24.711,12.355C451.193,314.416,451,314.416,450.811,314.416Z" transform="translate(-117.544 -39.23)" fill="#171819"/>
      <path id="Path_357" data-name="Path 357" d="M359.793,394.209h-.318a28.707,28.707,0,0,0-22.927,0,1.906,1.906,0,0,1-.637-3.758c8.407-4.331,16.686-4.777,24.2,0a1.9,1.9,0,0,1,1.528,2.229,1.861,1.861,0,0,1-1.847,1.529Z" transform="translate(-75.948 -75.652)" fill="#171819"/>
      <circle id="Ellipse_19" data-name="Ellipse 19" cx="5.859" cy="5.859" r="5.859" transform="translate(268.687 320.086)" fill="#171819"/>
      <circle id="Ellipse_20" data-name="Ellipse 20" cx="5.859" cy="5.859" r="5.859" transform="translate(328.745 320.086)" fill="#171819"/>
      <path id="Path_358" data-name="Path 358" d="M392.326,455.262a14.17,14.17,0,0,1-12.164-6.942,1.928,1.928,0,0,1,3.312-1.974,10.307,10.307,0,0,0,14.139,3.63,10.427,10.427,0,0,0,3.63-3.63,1.879,1.879,0,0,1,2.611-.7,1.842,1.842,0,0,1,.7,2.611.062.062,0,0,1-.064.064A14.39,14.39,0,0,1,392.326,455.262Z" transform="translate(-92.495 -96.836)" fill="#171819"/>
      <path id="Path_359" data-name="Path 359" d="M408.636,481c0,9.68-10.063,17.514-22.418,17.514S363.8,490.68,363.8,481A77.353,77.353,0,0,0,408.636,481Z" transform="translate(-86.642 -109.773)" fill="#fff"/>
      <path id="Path_360" data-name="Path 360" d="M385.129,499.372c-13.438,0-24.329-8.725-24.329-19.361a1.877,1.877,0,0,1,1.911-1.911,71.934,71.934,0,0,0,44.836,0,1.877,1.877,0,0,1,1.911,1.911C409.457,490.646,398.567,499.372,385.129,499.372Zm-20.38-17.514c1.274,7.706,9.872,13.629,20.38,13.629s19.106-5.987,20.38-13.629A62.1,62.1,0,0,1,364.749,481.858Z" transform="translate(-85.553 -108.72)" fill="#171819"/>
      <path id="Path_361" data-name="Path 361" d="M258,355.19s-14.9-1.083-14.9,14.011c0,16.113,3.758,26.048,14.9,26.43Z" transform="translate(-42.813 -64.082)" fill="#ffdec5"/>
      <path id="Path_362" data-name="Path 362" d="M256.913,396.453h-.064c-15.03-.509-16.75-16.431-16.75-28.341,0-5.031,1.528-9.044,4.522-11.782,4.968-4.649,12.164-4.14,12.419-4.14a1.892,1.892,0,0,1,1.783,1.911v40.441a1.876,1.876,0,0,1-1.911,1.911ZM255,356.076a13.453,13.453,0,0,0-7.834,3.121c-2.165,2.038-3.312,5.1-3.312,8.98,0,19.042,5.541,23.437,11.082,24.329V356.076Z" transform="translate(-41.723 -62.993)" fill="#171819"/>
      <path id="Path_363" data-name="Path 363" d="M529,355.19s14.9-1.083,14.9,14.011c0,16.113-3.758,26.048-14.9,26.43Z" transform="translate(-146.631 -64.082)" fill="#ffdec5"/>
      <path id="Path_364" data-name="Path 364" d="M527.911,396.453A1.876,1.876,0,0,1,526,394.543V354.1a1.892,1.892,0,0,1,1.783-1.911c.318,0,7.451-.509,12.419,4.14,2.993,2.8,4.522,6.751,4.522,11.782,0,11.91-1.72,27.831-16.75,28.341Zm1.911-40.441v36.429c5.541-.892,11.082-5.286,11.082-24.329,0-3.949-1.083-6.942-3.312-8.98A13.138,13.138,0,0,0,529.821,356.012Z" transform="translate(-145.541 -62.993)" fill="#171819"/>
      <path id="Path_365" data-name="Path 365" d="M457.993,388.409h-.318a28.707,28.707,0,0,0-22.927,0,1.906,1.906,0,0,1-.637-3.758c8.407-4.331,16.686-4.777,24.2,0a1.9,1.9,0,0,1,1.529,2.229,1.8,1.8,0,0,1-1.847,1.529Z" transform="translate(-111.607 -73.546)" fill="#171819"/>
    </g>
    <g id="Group_167" data-name="Group 167" transform="translate(-7 -6)" opacity="0.15">
      <text id="Html" transform="translate(1152 504)" fill="#063441" font-size="20" font-family="Poppins-Bold, Poppins" font-weight="700" letter-spacing="0.03em"><tspan x="0" y="0">Html</tspan></text>
      <text id="JPA" transform="translate(1446 532)" fill="#063441" font-size="20" font-family="Poppins-Bold, Poppins" font-weight="700" letter-spacing="0.03em"><tspan x="0" y="0">JPA</tspan></text>
      <text id="Spring_" data-name="Spring
" transform="translate(1108 449)" fill="#063441" font-size="20" font-family="Poppins-Bold, Poppins" font-weight="700" letter-spacing="0.03em"><tspan x="0" y="0">Spring</tspan><tspan x="0" y="50"></tspan></text>
      <text id="_" data-name="&lt;/&gt;" transform="translate(1067 579)" fill="#063441" font-size="20" font-family="Poppins-Bold, Poppins" font-weight="700" letter-spacing="0.03em"><tspan x="0" y="0">&lt;/&gt;</tspan></text>
      <text id="_2" data-name="&lt;/&gt;" transform="translate(1564 400)" fill="#063441" font-size="20" font-family="Poppins-Bold, Poppins" font-weight="700" letter-spacing="0.03em"><tspan x="0" y="0">&lt;/&gt;</tspan></text>
      <text id="Java" transform="translate(1478 414)" fill="#063441" font-size="20" font-family="Poppins-Bold, Poppins" font-weight="700" letter-spacing="0.03em"><tspan x="0" y="0">Java</tspan></text>
      <text id="Css" transform="translate(1545 460)" fill="#063441" font-size="20" font-family="Poppins-Bold, Poppins" font-weight="700" letter-spacing="0.03em"><tspan x="0" y="0">Css</tspan></text>
    </g>
  </g>
</svg>
