<svg xmlns="http://www.w3.org/2000/svg" xmlns:xlink="http://www.w3.org/1999/xlink" width="60.2" height="60.2" viewBox="0 0 60.2 60.2">
  <defs>
    <filter id="Path_277" x="0" y="0" width="60.2" height="60.2" filterUnits="userSpaceOnUse">
      <feOffset dy="3" input="SourceAlpha"/>
      <feGaussianBlur stdDeviation="3" result="blur"/>
      <feFlood flood-opacity="0.161"/>
      <feComposite operator="in" in2="blur"/>
      <feComposite in="SourceGraphic"/>
    </filter>
  </defs>
  <g id="web-link" transform="translate(0.9 -2.6)">
    <path id="Path_271" data-name="Path 271" d="M21.2,21.6c.3-.1.6-.1.7-.3.6-1,.7-.2,1.3-.5.2,0,.4-.8.6-.9.3-.2.1-.2,0-.3A13.707,13.707,0,0,0,21.2,21.6Z" fill="#fff"/>
    <path id="Path_272" data-name="Path 272" d="M19.8,31.8a2.5,2.5,0,0,0-.4-1.4,6.706,6.706,0,0,1-.9-1.4c-.1-.2-.1-.9-.2-1l-.3-.2a11.019,11.019,0,0,0-.2,1.8,11.131,11.131,0,0,0,2.9,7.5c-.1-.3-.1-.6.2-.7l.4-.1c.3-.3-.3-1.4-.1-1.6.8-.6.4-1.2-.1-1.8C21,32.8,19.9,31.6,19.8,31.8Z" fill="#fff"/>
    <path id="Path_273" data-name="Path 273" d="M27.5,22.3c.1-.1.3-.1.4-.3,0-.2.1-.1.1-.1a.349.349,0,0,0-.1-.2c-.1,0-.1.1-.2.1h-.1l-.1.1V22l-.1.1C27.3,22.3,27.4,22.4,27.5,22.3Z" fill="#fff"/>
    <path id="Path_274" data-name="Path 274" d="M28.6,22.2a2.353,2.353,0,0,0-.2-.8l.1-.1c-.2-.3-.4.4-.4.4h.1c.1.1-.1.1-.1.2.1.2,0,.3,0,.4s-.1.1-.2.1c-.1.1.3.1.3.1s-.4.1-.3.2c.1.2.9-.2.8-.2C29,22.3,28.8,22.3,28.6,22.2Z" fill="#fff"/>
    <path id="Path_275" data-name="Path 275" d="M27.2,19.5c.6.2,1.6-.5,2-.8l.4-.4h-.4a9.863,9.863,0,0,0-2.4.3c-.2.3-1.5.9-1.3.9-.4.1-.5.8-.4.8C25.3,20.2,26.6,19.3,27.2,19.5Z" fill="#fff"/>
    <path id="Path_276" data-name="Path 276" d="M33.6,19.2c.1.2-.5.2-.6.4a3.288,3.288,0,0,0-.3.6c-.1.2-.5.1-.5-.1.1-.2.5-.3-.1-.4s-.8-.5-1.4,0a2.092,2.092,0,0,0-.4.6c-.2.3-.6.3-.8.5-.2.3.1.7.4.5.1-.1,1.1.9.9.1-.1-.5.3-.8.3-1.2,0-.3.4-.1.3,0-.1.2-.3.7.1.8.1,0,.5-.2.6-.1-.1,0-.4.5-.4.5-.1.1-.3,0-.2.3s-.6.3-.7.3-.6-.2-.6,0c-.2-.2.1-.5-.1-.6-.1.2-.1.7-.4.7a1.126,1.126,0,0,0-.8.5,3.552,3.552,0,0,1-.9.4c.4,0,.4.3.4.6-.1.6-1.4,0-1.3.3.1.2-.1.8-.2,1,0,.2.6.3.5.4a9.439,9.439,0,0,1,.9-.3l.2-.4c.2-.1.3-.2.5-.2.1-.1.1-.2.2-.4.1,0,.9-.2.9-.1a2.336,2.336,0,0,1,.7.7c.1.1.3.2.3.3.1.1-.1.2,0,.3.1.3.2-.6.1-.4,0-.3.2.1.2.1l-.9-.9c-.3-.5.8.3.9.3.1.1.4.9.7.7.2-.1,0-.2.1-.3.2-.2.4,0,.6-.1-.5.4.4.8.3.8.2.1.4-.1.5,0,.1,0,.9,0,.8-.1.2.1.1,1-.1,1.2a3.1,3.1,0,0,1-1.9-.1c-.5-.4-.4.4-.7.5-.5.2-1.2-.6-1.7-.7.2,0,0-.6,0-.7-.2-.2-1.4,0-1.7.1a4.711,4.711,0,0,0-1.7.4c-.3.3-.3.7-.7.9-.2.1-.4.1-.6.3a5.383,5.383,0,0,0-.9,1.2c-.1.2.1.6.1.8-.4,1.3.1,3.2,1.7,3.4.4,0,.8.3,1.2.1a3.178,3.178,0,0,1,.9-.3c.5,0,.3.7.9.5.3-.1.5.2.5.5-.1.5-.3.8.1,1.1a1.326,1.326,0,0,1,.6,1c0,.2.2.6,0,.8-.2.1-.3.6-.3.8s.5.6.6.8c.2.3.1.5.2.8a2.994,2.994,0,0,1,.4.8c.1.4,1.2,0,1.4,0,.8,0,1.3-1.2,1.9-1.5.3-.2.2-.8.6-1.1s.8-.4.8-.9c0-.4-.3-1.3-.1-1.7s2.7-3.9,2-4.1l-1,.5c-.2,0-1-.8-1.2-1-.4-.4-.5-1.1-.9-1.5-.2-.3-.7-.8-.7-1.2,0,.1.3.5.4.4v-.2c0,.1.6.9.8.9.3.2.3.7.6.9.6.5.4,1.8,1.3,1,.6-.5,1.7-1.5,1.4-2.5-.2-.5-.9-.1-1.1,0-.2-.1-1.1-1.1-.8-1.2.2-.1.6.5.7.5.3.2.5-.3.7,0,.2.4,1.4-.4,1.7-.3a.215.215,0,0,1,.2.2A10.821,10.821,0,0,0,33.6,19.2Zm.9,5.1c-.2,0-1-.3-1,0,0,.2-.8,0-.7-.2.1-.1.1-.4.2-.6.2-.3.4-.1.4,0,0,.4.5-.4.7-.5.1,0-.1.2-.1.2,0,.3.3.5.7.6C35.2,24,34.8,24.3,34.5,24.3Z" fill="#fff"/>
    <g transform="matrix(1, 0, 0, 1, -0.9, 2.6)" filter="url(#Path_277)">
      <path id="Path_277-2" data-name="Path 277" d="M41.5,8.6H16.9a8.813,8.813,0,0,0-8.8,8.8V42a8.813,8.813,0,0,0,8.8,8.8H41.5A8.813,8.813,0,0,0,50.3,42V17.4A8.749,8.749,0,0,0,41.5,8.6Zm-14,34.6A13.663,13.663,0,1,1,42.8,27.9,13.79,13.79,0,0,1,27.5,43.2Z" transform="translate(0.9 -2.6)" fill="#fff"/>
    </g>
  </g>
</svg>
